<svg xmlns="http://www.w3.org/2000/svg" viewBox="0 0 64 64" fill="none">
  <defs>
    <linearGradient id="bg" x1="0" y1="0" x2="64" y2="64" gradientUnits="userSpaceOnUse">
      <stop stop-color="#1E40AF"/>
      <stop offset="0.55" stop-color="#172554"/>
      <stop offset="1" stop-color="#0F172A"/>
    </linearGradient>
    <linearGradient id="gold" x1="18" y1="14" x2="46" y2="50" gradientUnits="userSpaceOnUse">
      <stop stop-color="#F5D78E"/>
      <stop offset="1" stop-color="#C5A880"/>
    </linearGradient>
    <filter id="shadow" x="-30%" y="-30%" width="160%" height="160%">
      <feDropShadow dx="0" dy="3" stdDeviation="4" flood-color="#000000" flood-opacity="0.4"/>
    </filter>
  </defs>

  <rect x="1.5" y="1.5" width="61" height="61" rx="15" fill="url(#bg)" stroke="#C5A880" stroke-opacity="0.35" stroke-width="1.5"/>

  <g filter="url(#shadow)">
    <line x1="32" y1="14" x2="32" y2="45" stroke="url(#gold)" stroke-width="3.4" stroke-linecap="round"/>
    <circle cx="32" cy="14" r="3.4" fill="url(#gold)"/>

    <path d="M18.5 22h27" stroke="url(#gold)" stroke-width="3.4" stroke-linecap="round"/>

    <line x1="18.5" y1="23" x2="18.5" y2="28" stroke="url(#gold)" stroke-width="2" stroke-linecap="round"/>
    <line x1="45.5" y1="23" x2="45.5" y2="28" stroke="url(#gold)" stroke-width="2" stroke-linecap="round"/>

    <path d="M10.5 28c9 0 9 18 0 18s-9-18 0-18z" fill="url(#gold)"/>
    <path d="M53.5 28c-9 0-9 18 0 18s9-18 0-18z" fill="url(#gold)"/>

    <line x1="10.5" y1="30" x2="10.5" y2="38" stroke="url(#gold)" stroke-width="2.2" stroke-linecap="round"/>
    <line x1="53.5" y1="30" x2="53.5" y2="38" stroke="url(#gold)" stroke-width="2.2" stroke-linecap="round"/>

    <path d="M12 48h-4 M52 48h4" stroke="url(#gold)" stroke-width="3" stroke-linecap="round"/>
  </g>
</svg>